name rise34.3697peak60.0498fall86.3158.mot
datacolumns 19
datarows 35
range 11.17162100000000 11.22829500000000
endheader
time	ground_force1_vx	ground_force1_vy	ground_force1_vz	ground_force1_px	ground_force1_py	ground_force1_pz	ground_force2_vx	ground_force2_vy	ground_force2_vz	ground_force2_px	ground_force2_py	ground_force2_pz	ground_torque1_x	ground_torque1_y	ground_torque1_z	ground_torque2_x	ground_torque2_y	ground_torque2_z	
11.17162100000000	-11.08451600000000	46.78390400000000	-5.83096100000000	0.37909800000000	0.00000000000000	0.12788200000000	-37.10881400000000	784.90258100000005	-51.50820200000000	0.24323500000000	0.00000000000000	-0.04752900000000	0.00000000000000	-3.76422200000000	0.00000000000000	0.00000000000000	-27.05043300000000	0.00000000000000	
11.17329300000000	-12.00374400000000	53.83091300000000	-6.43122500000000	0.38404300000000	0.00000000000000	0.12831100000000	-37.69526000000000	782.63850900000000	-51.22322300000000	0.24206400000000	0.00000000000000	-0.04747400000000	0.00000000000000	-4.21318700000000	0.00000000000000	0.00000000000000	-26.85390100000000	0.00000000000000	
11.17495700000000	-12.73590900000000	60.89593800000000	-6.95973100000000	0.38869100000000	0.00000000000000	0.12869900000000	-38.29836600000000	780.26703399999997	-50.91832600000000	0.24089300000000	0.00000000000000	-0.04741700000000	0.00000000000000	-4.62894000000000	0.00000000000000	0.00000000000000	-26.65320900000000	0.00000000000000	
11.17662500000000	-13.26397700000000	67.91039900000000	-7.40637200000000	0.39308200000000	0.00000000000000	0.12905400000000	-38.91809100000000	777.78656300000000	-50.59344300000000	0.23972300000000	0.00000000000000	-0.04735700000000	0.00000000000000	-5.00432800000000	0.00000000000000	0.00000000000000	-26.44848400000000	0.00000000000000	
11.17829100000000	-13.58109200000000	74.82902300000001	-7.76557100000000	0.39724800000000	0.00000000000000	0.12938100000000	-39.55431100000000	775.19540199999994	-50.24852600000000	0.23855600000000	0.00000000000000	-0.04729400000000	0.00000000000000	-5.33492700000000	0.00000000000000	0.00000000000000	-26.23985000000000	0.00000000000000	
11.17995300000000	-13.68971000000000	81.62975200000000	-8.03599800000000	0.40121500000000	0.00000000000000	0.12968300000000	-40.20680900000000	772.49176199999999	-49.88355100000000	0.23739100000000	0.00000000000000	-0.04722900000000	0.00000000000000	-5.61894200000000	0.00000000000000	0.00000000000000	-26.02742500000000	0.00000000000000	
11.18162400000000	-13.60013100000000	88.31175100000000	-8.21998800000000	0.40500400000000	0.00000000000000	0.12996400000000	-40.87528000000000	769.67375800000002	-49.49851600000000	0.23623100000000	0.00000000000000	-0.04716000000000	0.00000000000000	-5.85691200000000	0.00000000000000	0.00000000000000	-25.81132300000000	0.00000000000000	
11.18328900000000	-13.32864000000000	94.89201600000000	-8.32276600000000	0.40863500000000	0.00000000000000	0.13022800000000	-41.55932400000000	766.73941000000002	-49.09344400000000	0.23507500000000	0.00000000000000	-0.04708900000000	0.00000000000000	-6.05127000000000	0.00000000000000	0.00000000000000	-25.59165300000000	0.00000000000000	
11.18495900000000	-12.89548400000000	101.40110500000000	-8.35157200000000	0.41212300000000	0.00000000000000	0.13047500000000	-42.25844400000000	763.68664899999999	-48.66838100000000	0.23392400000000	0.00000000000000	-0.04701500000000	0.00000000000000	-6.20581700000000	0.00000000000000	0.00000000000000	-25.36851600000000	0.00000000000000	
11.18662000000000	-12.32288000000000	107.87849300000001	-8.31476900000000	0.41548200000000	0.00000000000000	0.13070900000000	-42.97204500000000	760.51331900000002	-48.22340300000000	0.23278100000000	0.00000000000000	-0.04693800000000	0.00000000000000	-6.32517500000000	0.00000000000000	0.00000000000000	-25.14201000000000	0.00000000000000	
11.18828900000000	-11.63320900000000	114.36800500000000	-8.22102700000000	0.41872500000000	0.00000000000000	0.13093100000000	-43.69943300000000	757.21718299999998	-47.75860900000000	0.23164500000000	0.00000000000000	-0.04685800000000	0.00000000000000	-6.41426500000000	0.00000000000000	0.00000000000000	-24.91222300000000	0.00000000000000	
11.18996100000000	-10.84750500000000	120.91367200000001	-8.07861900000000	0.42186200000000	0.00000000000000	0.13114200000000	-44.43981400000000	753.79592900000000	-47.27412900000000	0.23051800000000	0.00000000000000	-0.04677500000000	0.00000000000000	-6.47784400000000	0.00000000000000	0.00000000000000	-24.67923900000000	0.00000000000000	
11.19162100000000	-9.98432100000000	127.55625900000000	-7.89487100000000	0.42490100000000	0.00000000000000	0.13134400000000	-45.19229100000000	750.24717499999997	-46.77011800000000	0.22940200000000	0.00000000000000	-0.04668900000000	0.00000000000000	-6.52014000000000	0.00000000000000	0.00000000000000	-24.44313500000000	0.00000000000000	
11.19329400000000	-9.05896900000000	134.33062200000001	-7.67578800000000	0.42785100000000	0.00000000000000	0.13153600000000	-45.95586800000000	746.56848000000002	-46.24676600000000	0.22829700000000	0.00000000000000	-0.04660000000000	0.00000000000000	-6.54457900000000	0.00000000000000	0.00000000000000	-24.20398000000000	0.00000000000000	
11.19495500000000	-8.08315200000000	141.26394999999999	-7.42584100000000	0.43071800000000	0.00000000000000	0.13172100000000	-46.72944500000000	742.75735099999997	-45.70428900000000	0.22720400000000	0.00000000000000	-0.04650700000000	0.00000000000000	-6.55363100000000	0.00000000000000	0.00000000000000	-23.96183900000000	0.00000000000000	
11.19662100000000	-7.06493000000000	148.37485500000000	-7.14791500000000	0.43351000000000	0.00000000000000	0.13189900000000	-47.51182200000000	738.81125099999997	-45.14293600000000	0.22612600000000	0.00000000000000	-0.04641100000000	0.00000000000000	-6.54875000000000	0.00000000000000	0.00000000000000	-23.71676600000000	0.00000000000000	
11.19829500000000	-6.00896400000000	155.67324600000001	-6.84338700000000	0.43623100000000	0.00000000000000	0.13207000000000	-48.30169800000000	734.72761500000001	-44.56298900000000	0.22506300000000	0.00000000000000	-0.04631200000000	0.00000000000000	-6.53039800000000	0.00000000000000	0.00000000000000	-23.46881200000000	0.00000000000000	
11.19996100000000	-4.91697800000000	163.16082800000001	-6.51230200000000	0.43888600000000	0.00000000000000	0.13223500000000	-49.09767600000000	730.50385700000004	-43.96476100000000	0.22401700000000	0.00000000000000	-0.04620900000000	0.00000000000000	-6.49815200000000	0.00000000000000	0.00000000000000	-23.21801700000000	0.00000000000000	
11.20162800000000	-3.78835400000000	170.83209299999999	-6.15362600000000	0.44148000000000	0.00000000000000	0.13239500000000	-49.89825900000000	726.13738499999999	-43.34860100000000	0.22298900000000	0.00000000000000	-0.04610300000000	0.00000000000000	-6.45084400000000	0.00000000000000	0.00000000000000	-22.96441900000000	0.00000000000000	
11.20329000000000	-2.62079400000000	178.67562899999999	-5.76553300000000	0.44401600000000	0.00000000000000	0.13254900000000	-50.70185700000000	721.62561700000003	-42.71489000000000	0.22198000000000	0.00000000000000	-0.04599300000000	0.00000000000000	-6.38675300000000	0.00000000000000	0.00000000000000	-22.70804300000000	0.00000000000000	
11.20495300000000	-1.41098700000000	186.67559900000001	-5.34570100000000	0.44649700000000	0.00000000000000	0.13269800000000	-51.50678900000000	716.96599500000002	-42.06404200000000	0.22099300000000	0.00000000000000	-0.04588000000000	0.00000000000000	-6.30378600000000	0.00000000000000	0.00000000000000	-22.44891400000000	0.00000000000000	
11.20662300000000	-0.15524200000000	194.81323399999999	-4.89159900000000	0.44892700000000	0.00000000000000	0.13284300000000	-52.31128400000000	712.15600300000006	-41.39650800000000	0.22002700000000	0.00000000000000	-0.04576200000000	0.00000000000000	-6.19967200000000	0.00000000000000	0.00000000000000	-22.18704500000000	0.00000000000000	
11.20829000000000	1.14998000000000	203.06824800000001	-4.40073800000000	0.45130800000000	0.00000000000000	0.13298300000000	-53.11348700000000	707.19318099999998	-40.71277400000000	0.21908600000000	0.00000000000000	-0.04564100000000	0.00000000000000	-6.07213300000000	0.00000000000000	0.00000000000000	-21.92244400000000	0.00000000000000	
11.20996200000000	2.50762800000000	211.42007500000000	-3.87088100000000	0.45364100000000	0.00000000000000	0.13311900000000	-53.91146400000000	702.07514900000001	-40.01335900000000	0.21817100000000	0.00000000000000	-0.04551600000000	0.00000000000000	-5.91902500000000	0.00000000000000	0.00000000000000	-21.65511400000000	0.00000000000000	
11.21162000000000	3.91974500000000	219.84887100000000	-3.30020200000000	0.45592900000000	0.00000000000000	0.13325200000000	-54.70320300000000	696.79962200000000	-39.29881600000000	0.21728200000000	0.00000000000000	-0.04538700000000	0.00000000000000	-5.73845400000000	0.00000000000000	0.00000000000000	-21.38505100000000	0.00000000000000	
11.21329100000000	5.38727700000000	228.33626400000000	-2.68738500000000	0.45817300000000	0.00000000000000	0.13338000000000	-55.48662400000000	691.36442899999997	-38.56973400000000	0.21642200000000	0.00000000000000	-0.04525300000000	0.00000000000000	-5.52885200000000	0.00000000000000	0.00000000000000	-21.11224400000000	0.00000000000000	
11.21495500000000	6.90998500000000	236.86584199999999	-2.03168600000000	0.46037500000000	0.00000000000000	0.13350500000000	-56.25958100000000	685.76753699999995	-37.82673600000000	0.21559200000000	0.00000000000000	-0.04511600000000	0.00000000000000	-5.28902800000000	0.00000000000000	0.00000000000000	-20.83667700000000	0.00000000000000	
11.21662300000000	8.48645800000000	245.42339400000000	-1.33293800000000	0.46253500000000	0.00000000000000	0.13362700000000	-57.01986700000000	680.00706400000001	-37.07047800000000	0.21479400000000	0.00000000000000	-0.04497400000000	0.00000000000000	-5.01817700000000	0.00000000000000	0.00000000000000	-20.55832900000000	0.00000000000000	
11.21829300000000	10.11420400000000	253.99694199999999	-0.59152400000000	0.46465400000000	0.00000000000000	0.13374500000000	-57.76522400000000	674.08130100000005	-36.30164800000000	0.21402900000000	0.00000000000000	-0.04482700000000	0.00000000000000	-4.71587700000000	0.00000000000000	0.00000000000000	-20.27717400000000	0.00000000000000	
11.21995900000000	11.78979500000000	262.57661000000002	0.19167000000000	0.46673200000000	0.00000000000000	0.13385900000000	-58.49334700000000	667.98872800000004	-35.52096600000000	0.21329900000000	0.00000000000000	-0.04467600000000	0.00000000000000	-4.38205800000000	0.00000000000000	0.00000000000000	-19.99318000000000	0.00000000000000	
11.22162200000000	13.50904200000000	271.15435700000000	1.01533500000000	0.46877100000000	0.00000000000000	0.13397100000000	-59.20189100000000	661.72802999999999	-34.72918400000000	0.21260500000000	0.00000000000000	-0.04452000000000	0.00000000000000	-4.01696000000000	0.00000000000000	0.00000000000000	-19.70631400000000	0.00000000000000	
11.22329100000000	15.26719500000000	279.72364399999998	1.87781700000000	0.47076900000000	0.00000000000000	0.13407900000000	-59.88848000000000	655.29810999999995	-33.92708400000000	0.21194900000000	0.00000000000000	-0.04435900000000	0.00000000000000	-3.62108400000000	0.00000000000000	0.00000000000000	-19.41653600000000	0.00000000000000	
11.22495600000000	17.05913000000000	288.27906400000001	2.77719800000000	0.47272600000000	0.00000000000000	0.13418400000000	-60.55071200000000	648.69810399999994	-33.11547700000000	0.21133200000000	0.00000000000000	-0.04419300000000	0.00000000000000	-3.19514300000000	0.00000000000000	0.00000000000000	-19.12380700000000	0.00000000000000	
11.22662200000000	18.87952900000000	296.81597599999998	3.71137800000000	0.47464400000000	0.00000000000000	0.13428700000000	-61.18616900000000	641.92738899999995	-32.29520100000000	0.21075700000000	0.00000000000000	-0.04402200000000	0.00000000000000	-2.74000700000000	0.00000000000000	0.00000000000000	-18.82808400000000	0.00000000000000	
11.22829500000000	20.72303600000000	305.33016800000001	4.67814300000000	0.47652000000000	0.00000000000000	0.13438600000000	-61.79242300000000	634.98559100000000	-31.46712000000000	0.21022400000000	0.00000000000000	-0.04384600000000	0.00000000000000	-2.25666100000000	0.00000000000000	0.00000000000000	-18.52932600000000	0.00000000000000	
